<svg aria-hidden="true" style="width:15px;height:;position:absolute;overflow:hidden" xmlns="http://www.w3.org/2000/svg"><defs><symbol id="icon-open" viewBox="0 0 46 32"><path style="stroke:var(--color1,#000)" stroke-width="2.286" d="M0 2.286h45.714M0 16h45.714M0 29.714h45.714"/></symbol><symbol id="icon-close" viewBox="0 0 32 32"><path d="m26.667 7.303-1.97-1.97-7.808 7.808-7.808-7.808-1.97 1.97 7.808 7.808-7.808 7.808 1.97 1.97 7.808-7.808 7.808 7.808 1.97-1.97-7.808-7.808 7.808-7.808z"/></symbol><symbol id="scroll-up" viewBox="0 0 28 32"><path d="m15.061 8.158 12.146 12.146a1.5 1.5 0 0 1 0 2.121l-1.417 1.417a1.5 1.5 0 0 1-2.119.003l-9.672-9.626-9.672 9.626a1.5 1.5 0 0 1-2.119-.003L.791 22.425a1.5 1.5 0 0 1 0-2.121L12.937 8.158a1.5 1.5 0 0 1 2.121 0z"/></symbol><symbol id="icon-search" viewBox="0 0 32 32"><path fill="#fd5103" style="fill:var(--color1,#fd5103);stroke:var(--color1,#fd5103)" stroke="#fd5103" stroke-width="1.684" d="m21.79 22.982 7.335 7.335 1.191-1.191-7.336-7.336.459-.587a12.55 12.55 0 0 0 2.666-7.73l-4.316 9.508zm0 0-.587.459m.587-.459-.587.459m0 0a12.545 12.545 0 0 1-7.729 2.664l7.729-2.664zm-7.729 2.664C6.51 26.105.843 20.437.843 13.473S6.511.841 13.475.841c6.964 0 12.631 5.668 12.632 12.631L13.475 26.104zm10.947-12.631c0-6.038-4.909-10.947-10.947-10.947S2.527 7.436 2.527 13.474c0 6.038 4.909 10.947 10.947 10.947s10.947-4.909 10.947-10.947z"/></symbol><symbol id="icon-menu" viewBox="0 0 60 32"><path d="M2 0h56a2 2 0 1 1 0 4H2a2 2 0 1 1 0-4zM2 14h56a2 2 0 1 1 0 4H2a2 2 0 1 1 0-4zM2 28h56a2 2 0 1 1 0 4H2a2 2 0 1 1 0-4z"/></symbol><symbol id="icon-btn-dark" viewBox="0 0 80 32"><path fill="#fff" style="fill:var(--color1,#fff);stroke:var(--color2,#fd5103)" stroke="#fd5103" stroke-width="2" d="M16 1h48c8.284 0 15 6.716 15 15s-6.716 15-15 15H16C7.716 31 1 24.284 1 16S7.716 1 16 1z"/></symbol><symbol id="icon-redlike" viewBox="0 0 32 32"><path d="M22.45 6h.005c1.53 0 2.913.628 3.905 1.64l.001.001c1.014 1.028 1.639 2.441 1.639 4s-.626 2.972-1.64 4.001l.001-.001L16 26.128 5.641 15.639c-1.014-1.028-1.639-2.441-1.639-4s.626-2.972 1.64-4.001l-.001.001c.995-1.013 2.379-1.64 3.909-1.64s2.914.628 3.909 1.639l.001.001 2.542 2.599 2.528-2.58a5.427 5.427 0 0 1 3.913-1.66h.008zm0-2h-.007a7.447 7.447 0 0 0-5.333 2.239l-.001.001L16 7.36l-1.109-1.12c-1.36-1.382-3.25-2.238-5.34-2.238s-3.981.856-5.339 2.237l-.001.001c-1.368 1.392-2.212 3.302-2.212 5.41s.844 4.018 2.213 5.411l-.001-.001L16.001 29l11.79-11.94c1.368-1.392 2.212-3.302 2.212-5.41s-.844-4.018-2.213-5.411l.001.001A7.464 7.464 0 0 0 22.451 4z"/></symbol><symbol id="icon-carbon_favorite-2-1" viewBox="0 0 32 32"><path fill="#fd5103" style="fill:var(--color1,#fd5103)" d="M22.449 6h.005c1.529 0 2.912.628 3.905 1.639l.001.001c1.013 1.028 1.639 2.441 1.639 4s-.626 2.972-1.64 4.001l.001-.001L16 26.129 5.64 15.64c-1.013-1.028-1.639-2.441-1.639-4s.626-2.972 1.64-4.001l-.001.001C6.635 6.627 8.019 6 9.55 6s2.915.628 3.909 1.64l.001.001 2.54 2.6 2.531-2.58a5.426 5.426 0 0 1 3.912-1.66h.008zm0-2h-.007a7.445 7.445 0 0 0-5.332 2.239l-.001.001L16 7.36l-1.109-1.12c-1.36-1.382-3.25-2.238-5.34-2.238s-3.98.856-5.339 2.237l-.001.001c-1.368 1.392-2.213 3.302-2.213 5.41s.845 4.018 2.214 5.411l-.001-.001L16 29l11.791-11.94c1.368-1.392 2.213-3.302 2.213-5.41s-.845-4.018-2.214-5.411l.001.001A7.466 7.466 0 0 0 22.45 4z"/></symbol><symbol id="icon-heart" viewBox="0 0 35 32"><path fill="#fd5103" style="fill:var(--color1,#fd5103)" d="m17.684 32-2.564-2.302C6.013 21.554 0 16.183 0 9.591 0 4.22 4.28 0 9.726 0c3.077 0 6.03 1.413 7.958 3.645C19.612 1.413 22.565 0 25.642 0c5.447 0 9.726 4.22 9.726 9.591 0 6.592-6.013 11.963-15.12 20.124l-2.564 2.284z"/></symbol></defs></svg>