<svg aria-hidden="true" style="position: absolute; width: 15px; height: ; overflow: hidden;" version="1.1" xmlns="http://www.w3.org/2000/svg" xmlns:xlink="http://www.w3.org/1999/xlink">
  <defs>
  <symbol id="icon-open" viewBox="0 0 46 32">
    <path  style="stroke: var(--color1, #000000)" stroke-linejoin="miter" stroke-linecap="butt" stroke-miterlimit="4" stroke-width="2.2857" d="M0 2.286h45.714"></path>
    <path  style="stroke: var(--color1, #000000)" stroke-linejoin="miter" stroke-linecap="butt" stroke-miterlimit="4" stroke-width="2.2857" d="M0 16h45.714"></path>
    <path  style="stroke: var(--color1, #000000)" stroke-linejoin="miter" stroke-linecap="butt" stroke-miterlimit="4" stroke-width="2.2857" d="M0 29.714h45.714"></path>
  </symbol>
  <symbol id="icon-close" viewBox="0 0 32 32"><path d="m26.667 7.303-1.97-1.97-7.808 7.808-7.808-7.808-1.97 1.97 7.808 7.808-7.808 7.808 1.97 1.97 7.808-7.808 7.808 7.808 1.97-1.97-7.808-7.808 7.808-7.808z"/></symbol>
  <symbol id="scroll-up" viewBox="0 0 28 32"><path d="M15.061 8.158l12.146 12.146c0.586 0.586 0.586 1.536 0 2.121l-1.417 1.417c-0.585 0.585-1.533 0.586-2.119 0.003l-9.672-9.626-9.672 9.626c-0.586 0.583-1.534 0.582-2.119-0.003l-1.417-1.417c-0.586-0.586-0.586-1.536 0-2.121l12.146-12.146c0.586-0.586 1.536-0.586 2.121-0z"></path></symbol>
  <symbol id="icon-search" viewBox="0 0 32 32">
<path fill="#fd5103" style="fill: var(--color1, #fd5103); stroke: var(--color1, #fd5103)" stroke="#fd5103" stroke-linejoin="miter" stroke-linecap="butt" stroke-miterlimit="4" stroke-width="1.6842" d="M21.79 22.982l7.335 7.335 1.191-1.191-7.336-7.336 0.459-0.587c1.727-2.207 2.665-4.928 2.666-7.73l-4.316 9.508zM21.79 22.982l-0.587 0.459M21.79 22.982l-0.587 0.459M21.203 23.441c-2.207 1.726-4.927 2.664-7.729 2.664l7.729-2.664zM13.474 26.105c-6.964-0-12.631-5.668-12.631-12.632s5.668-12.632 12.632-12.632c6.964 0 12.631 5.668 12.632 12.631l-12.632 12.632zM24.421 13.474c0-6.038-4.909-10.947-10.947-10.947s-10.947 4.909-10.947 10.947c0 6.038 4.909 10.947 10.947 10.947s10.947-4.909 10.947-10.947z"></path>
</symbol>
<symbol id="icon-menu" viewBox="0 0 60 32">
<path d="M2 0h56c1.105 0 2 0.895 2 2s-0.895 2-2 2h-56c-1.105 0-2-0.895-2-2s0.895-2 2-2z"></path>
<path d="M2 14h56c1.105 0 2 0.895 2 2s-0.895 2-2 2h-56c-1.105 0-2-0.895-2-2s0.895-2 2-2z"></path>
<path d="M2 28h56c1.105 0 2 0.895 2 2s-0.895 2-2 2h-56c-1.105 0-2-0.895-2-2s0.895-2 2-2z"></path>
</symbol>
<symbol id="icon-btn-dark" viewBox="0 0 80 32">
<path fill="#fff" style="fill: var(--color1, #fff); stroke: var(--color2, #fd5103)" stroke="#fd5103" stroke-linejoin="miter" stroke-linecap="butt" stroke-miterlimit="4" stroke-width="2" d="M16 1h48c8.284 0 15 6.716 15 15s-6.716 15-15 15h-48c-8.284 0-15-6.716-15-15s6.716-15 15-15z"></path>
</symbol>
<symbol id="icon-redlike" viewBox="0 0 32 32">
<path d="M22.45 6c0.001 0 0.003 0 0.005 0 1.53 0 2.913 0.628 3.905 1.64l0.001 0.001c1.014 1.028 1.639 2.441 1.639 4s-0.626 2.972-1.64 4.001l0.001-0.001-10.361 10.487-10.359-10.489c-1.014-1.028-1.639-2.441-1.639-4s0.626-2.972 1.64-4.001l-0.001 0.001c0.995-1.013 2.379-1.64 3.909-1.64s2.914 0.628 3.909 1.639l0.001 0.001 2.542 2.599 2.528-2.58c0.991-1.024 2.377-1.66 3.913-1.66 0.003 0 0.005 0 0.008 0h-0zM22.45 4c-0.002 0-0.004 0-0.007 0-2.089 0-3.977 0.857-5.333 2.239l-0.001 0.001-1.109 1.12-1.109-1.12c-1.36-1.382-3.25-2.238-5.34-2.238s-3.981 0.856-5.339 2.237l-0.001 0.001c-1.368 1.392-2.212 3.302-2.212 5.41s0.844 4.018 2.213 5.411l-0.001-0.001 11.79 11.94 11.79-11.94c1.368-1.392 2.212-3.302 2.212-5.41s-0.844-4.018-2.213-5.411l0.001 0.001c-1.359-1.383-3.25-2.24-5.34-2.24h-0z"></path>
</symbol>
<symbol id="icon-carbon_favorite-2-1" viewBox="0 0 32 32">
<path fill="#fd5103" style="fill: var(--color1, #fd5103)" d="M22.449 6c0.002 0 0.003 0 0.005 0 1.529 0 2.912 0.628 3.905 1.639l0.001 0.001c1.013 1.028 1.639 2.441 1.639 4s-0.626 2.972-1.64 4.001l0.001-0.001-10.36 10.489-10.36-10.489c-1.013-1.028-1.639-2.441-1.639-4s0.626-2.972 1.64-4.001l-0.001 0.001c0.995-1.013 2.379-1.64 3.91-1.64s2.915 0.628 3.909 1.64l0.001 0.001 2.54 2.6 2.531-2.58c0.991-1.024 2.377-1.66 3.912-1.66 0.003 0 0.006 0 0.008 0h-0zM22.449 4c-0.002 0-0.004 0-0.007 0-2.088 0-3.977 0.857-5.332 2.239l-0.001 0.001-1.109 1.12-1.109-1.12c-1.36-1.382-3.25-2.238-5.34-2.238s-3.98 0.856-5.339 2.237l-0.001 0.001c-1.368 1.392-2.213 3.302-2.213 5.41s0.845 4.018 2.214 5.411l-0.001-0.001 11.789 11.94 11.791-11.94c1.368-1.392 2.213-3.302 2.213-5.41s-0.845-4.018-2.214-5.411l0.001 0.001c-1.36-1.383-3.25-2.24-5.341-2.24-0 0-0 0-0 0v0z"></path>
</symbol>
<symbol id="icon-heart" viewBox="0 0 35 32">
<path fill="#fd5103" style="fill: var(--color1, #fd5103)" d="M17.684 32l-2.564-2.302c-9.107-8.144-15.12-13.515-15.12-20.107 0-5.371 4.28-9.591 9.726-9.591 3.077 0 6.030 1.413 7.958 3.645 1.928-2.232 4.881-3.645 7.958-3.645 5.447 0 9.726 4.22 9.726 9.591 0 6.592-6.013 11.963-15.12 20.124l-2.564 2.284z"></path>
</symbol>
</defs>
</svg>
